<svg width="12" height="11" viewBox="0 0 12 11" fill="none" xmlns="http://www.w3.org/2000/svg">
<path d="M0.387173 5.69343L3.06843 6.66328L4.10624 9.89788C4.17264 10.105 4.43403 10.1816 4.60753 10.0441L6.10211 8.86334C6.25877 8.73963 6.48192 8.73346 6.64564 8.84864L9.34133 10.7454C9.52693 10.8761 9.78987 10.7776 9.83642 10.5602L11.8111 1.35448C11.862 1.11705 11.6212 0.918983 11.388 1.00642L0.384032 5.12043C0.112477 5.22192 0.114843 5.59453 0.387173 5.69343ZM3.93898 6.147L9.17915 3.01916C9.27333 2.96311 9.37022 3.08652 9.28935 3.15923L4.96469 7.05517C4.81268 7.1923 4.71463 7.37582 4.68685 7.57502L4.53954 8.63305C4.52003 8.77432 4.31527 8.78834 4.27504 8.65163L3.70847 6.72226C3.64358 6.5022 3.73814 6.26715 3.93898 6.147Z" fill="#323232"/>
</svg>
