<svg width="44" height="44" viewBox="0 0 44 44" fill="none" xmlns="http://www.w3.org/2000/svg">
<path fill-rule="evenodd" clip-rule="evenodd" d="M42.9091 30.9193C41.912 28.9109 40.5981 27.0763 39.0179 25.4858C38.4802 24.8608 37.8496 24.2438 37.3575 23.7623L37.2887 23.695C37.0349 23.4466 36.825 23.2403 36.6534 23.0626C38.814 20.0582 40.6633 16.8411 42.1721 13.4609L42.233 13.3245L42.2757 13.1814C42.474 12.5161 42.7024 11.251 41.8944 10.1076C41.0593 8.92591 39.7221 8.71279 38.8267 8.71279H34.7071C33.8482 8.67342 32.9978 8.90559 32.2773 9.37762C31.5513 9.85322 30.9959 10.5469 30.6904 11.3578C29.8031 13.4711 28.693 15.4812 27.3803 17.3545V12.5268C27.3803 11.9027 27.3216 10.8588 26.6534 9.9777C25.8533 8.92273 24.6963 8.71279 23.8932 8.71279H17.3563C16.5141 8.69331 15.6951 8.99445 15.0656 9.55658C14.421 10.1322 14.0259 10.9364 13.9643 11.7984L13.9584 11.8801V11.962C13.9584 12.852 14.3111 13.5086 14.5929 13.9215C14.719 14.1063 14.8539 14.2746 14.9392 14.3809L14.9589 14.4054C15.0497 14.5188 15.1104 14.5944 15.1713 14.6772C15.3314 14.895 15.5618 15.2309 15.6269 16.1V18.8004C14.5 16.9479 13.3112 14.4827 12.4167 11.8498L12.403 11.8094L12.3878 11.7695C12.1647 11.1854 11.807 10.3355 11.0906 9.68505C10.2536 8.92522 9.26364 8.71279 8.36333 8.71279H4.18343C3.27261 8.71279 2.17457 8.92587 1.35526 9.79015C0.549579 10.6401 0.458328 11.6585 0.458328 12.1999V12.444L0.509733 12.6826C1.66749 18.0563 4.05306 23.0886 7.47901 27.3859C9.03224 29.8354 11.1369 31.8885 13.6256 33.3807C16.1539 34.8967 19.0063 35.7903 21.9477 35.988L22.0245 35.9931H22.1014C23.4321 35.9931 24.8193 35.8783 25.8624 35.1831C27.2697 34.2454 27.3803 32.805 27.3803 32.0874V30.0012C27.7414 30.2931 28.1895 30.6861 28.738 31.2142C29.4011 31.878 29.9291 32.453 30.382 32.9551L30.6237 33.2238L30.6251 33.2253C30.9767 33.6169 31.3229 34.0024 31.6381 34.3192C32.0342 34.7175 32.5226 35.1563 33.1366 35.4805C33.8013 35.8315 34.4991 35.9903 35.2402 35.9903H39.423C40.3042 35.9903 41.5681 35.7819 42.4567 34.7517C43.4251 33.6289 43.3511 32.2529 43.0466 31.264L42.9919 31.0861L42.9091 30.9193ZM32.4239 31.113C31.953 30.591 31.3852 29.9723 30.6677 29.2548L30.6617 29.249C28.1756 26.852 27.0139 26.4343 26.1924 26.4343C25.7556 26.4343 25.2722 26.4833 24.9584 26.8741C24.8104 27.0586 24.7326 27.2811 24.6889 27.513C24.6453 27.7446 24.6303 28.0164 24.6303 28.3261V32.0874C24.6303 32.5545 24.5535 32.7507 24.3374 32.8947C24.0496 33.0865 23.4346 33.2419 22.1168 33.2431C19.6154 33.0726 17.1901 32.3115 15.0397 31.0221C12.885 29.7302 11.068 27.9447 9.73843 25.813L9.72396 25.7898L9.70683 25.7685C6.51451 21.7951 4.29004 17.134 3.20888 12.1535C3.21474 11.9134 3.26676 11.771 3.35103 11.6821C3.43788 11.5905 3.6483 11.4628 4.18343 11.4628H8.36333C8.82831 11.4628 9.06895 11.5639 9.24214 11.7212C9.43848 11.8994 9.60878 12.2021 9.81567 12.7426C10.8416 15.7602 12.229 18.5822 13.5428 20.6573C14.1995 21.6944 14.8458 22.5577 15.428 23.1677C15.7187 23.4722 16.0037 23.7247 16.2758 23.904C16.5391 24.0777 16.8376 24.2146 17.1446 24.2146C17.3065 24.2146 17.496 24.198 17.6784 24.1172C17.8747 24.0303 18.027 23.8855 18.1346 23.6915C18.3248 23.3482 18.3769 22.8398 18.3769 22.1738V16.007L18.376 15.9925C18.281 14.4922 17.828 13.6483 17.387 13.0483C17.2903 12.9168 17.195 12.7981 17.1116 12.6941L17.0887 12.6657C16.9971 12.5515 16.9243 12.4592 16.8644 12.3714C16.7547 12.2106 16.7121 12.0985 16.7087 11.9784C16.723 11.8358 16.7902 11.7034 16.8974 11.6077C17.0086 11.5083 17.1542 11.4566 17.3033 11.4628H23.8932C24.2709 11.4628 24.3982 11.555 24.4622 11.6394C24.5526 11.7586 24.6303 12.0065 24.6303 12.5268V20.8292C24.6303 21.8154 25.0849 22.483 25.7452 22.483C26.5048 22.483 27.0525 22.0221 28.0101 21.0644L28.0261 21.0484L28.0404 21.031C30.1869 18.4134 31.9412 15.4973 33.247 12.3741L33.2553 12.3507C33.3535 12.0747 33.5392 11.8385 33.7843 11.6779C34.0293 11.5174 34.3201 11.4415 34.6123 11.4617L34.6281 11.4628H38.8267C39.3993 11.4628 39.5877 11.6085 39.6486 11.6947C39.7134 11.7864 39.7585 11.9829 39.6483 12.3683C38.143 15.735 36.2814 18.9308 34.0964 21.9018L34.0826 21.9229C33.8704 22.2473 33.6377 22.6062 33.6041 23.0184C33.5679 23.461 33.7595 23.8633 34.0946 24.2946C34.3387 24.6556 34.8423 25.1486 35.3533 25.6487L35.4014 25.6959C35.9371 26.2202 36.5175 26.7881 36.9834 27.338L36.9958 27.3527L37.0094 27.3662C38.3981 28.7515 39.5529 30.3527 40.4287 32.1076C40.5685 32.5855 40.4829 32.8297 40.3743 32.9556C40.2471 33.103 39.9623 33.2403 39.423 33.2403H35.2402C34.9137 33.2403 34.6615 33.1759 34.4207 33.0487C34.1696 32.9162 33.9115 32.7053 33.5878 32.3799C33.327 32.1177 33.0421 31.8006 32.6946 31.4139C32.6085 31.318 32.5183 31.2176 32.4239 31.113Z" fill="#FBFBFB"/>
</svg>
