<svg width="20" height="20" viewBox="0 0 20 20" fill="none" xmlns="http://www.w3.org/2000/svg">
<path d="M10 0C4.477 0 0 4.477 0 10C0 15.523 4.477 20 10 20C15.523 20 20 15.523 20 10C20 4.477 15.523 0 10 0ZM15.515 14H14.206C13.71 14 13.553 13.509 12.688 12.5C11.938 11.625 11.55 11.5 11.359 11.5C11.091 11.5 11 11.566 11 11.967V13.453C11 13.786 10.914 14 10.075 14C8.69 14 7.125 13.062 5.938 11.437C4.3 9.196 4 7.247 4 6.887C4 6.687 4.063 6.5 4.445 6.5H5.766C6.097 6.5 6.224 6.647 6.351 7.034C6.938 9 7.813 10.5 8.258 10.5C8.423 10.5 8.5 10.42 8.5 9.98V8.168C8.449 7.234 8 7.154 8 6.82C8 6.659 8.106 6.5 8.31 6.5H10.634C10.914 6.5 11 6.66 11 7.007V9.6C11 9.893 11.224 10 11.312 10C11.477 10 11.632 10.008 11.937 9.687C12.877 8.579 13.693 6.9 13.693 6.9C13.783 6.7 13.935 6.5 14.266 6.5H15.575C15.868 6.5 15.992 6.631 16 6.813C16.003 6.876 15.992 6.946 15.969 7.021C15.804 7.821 14.112 10.197 14.125 10.197C14.053 10.32 14.005 10.408 14 10.501C13.995 10.589 14.031 10.681 14.125 10.811C14.264 11.011 14.568 11.379 14.875 11.751C15.43 12.422 15.875 13.126 15.972 13.414C15.993 13.492 16.002 13.563 16 13.626C15.993 13.872 15.818 14 15.515 14Z" fill="#323232"/>
</svg>
