<svg width="12" height="12" viewBox="0 0 12 12" fill="none" xmlns="http://www.w3.org/2000/svg">
<path fill-rule="evenodd" clip-rule="evenodd" d="M6.10558 11.2166C9.26072 11.2166 11.818 8.76937 11.818 5.75041C11.818 2.73146 9.26098 0.28418 6.10558 0.28418C2.95058 0.28418 0.393035 2.73146 0.393035 5.75041C0.393035 6.78316 0.692606 7.74921 1.21275 8.57287L0.181641 11.5057L3.34428 10.5365C4.16296 10.9698 5.10395 11.2166 6.10558 11.2166ZM8.77543 7.14475C8.8787 7.1964 8.94846 7.23129 8.97848 7.28255C9.01514 7.34623 9.01514 7.65201 8.89247 8.00911C8.76897 8.36564 8.16623 8.70966 7.8958 8.73511C7.84943 8.73949 7.81101 8.74911 7.77162 8.75896C7.58106 8.80665 7.36803 8.85997 6.12423 8.35328C4.73735 7.78798 3.82321 6.38486 3.63429 6.09489C3.61878 6.07108 3.60816 6.05478 3.60256 6.04706L3.60232 6.04672C3.52739 5.94368 2.99982 5.21817 2.99982 4.46727C2.99982 3.76402 3.3336 3.3952 3.48731 3.22536C3.49787 3.21369 3.50758 3.20295 3.51628 3.19311C3.65163 3.04029 3.81166 3.00205 3.91007 3.00205C3.96093 3.00205 4.01183 3.00547 4.06102 3.00877C4.107 3.01186 4.15148 3.01485 4.19304 3.01485C4.20336 3.01485 4.2142 3.01412 4.22551 3.01336C4.3087 3.00778 4.41684 3.00051 4.52508 3.26959C4.56449 3.36765 4.62163 3.5115 4.68229 3.66424C4.81089 3.98802 4.95534 4.35171 4.98035 4.40358C5.01742 4.4802 5.04209 4.56934 4.99261 4.67126C4.98558 4.68593 4.97906 4.69979 4.97281 4.71306C4.93561 4.79212 4.90851 4.8497 4.84513 4.92615C4.8207 4.95569 4.79544 4.9875 4.77017 5.01933C4.71917 5.08356 4.66811 5.14787 4.62363 5.19369C4.54989 5.26974 4.47288 5.35234 4.55889 5.50516C4.64503 5.65826 4.94136 6.15808 5.38013 6.56295C5.85213 6.99845 6.26224 7.18257 6.46987 7.27578C6.5103 7.29393 6.54305 7.30863 6.56708 7.32107C6.71484 7.39755 6.80085 7.38476 6.887 7.28255C6.97328 7.18062 7.25625 6.83674 7.35453 6.68378C7.4528 6.53096 7.55149 6.55655 7.68684 6.60744C7.82178 6.65819 8.54775 7.02794 8.69551 7.10428C8.72401 7.11904 8.75068 7.13238 8.77543 7.14475Z" fill="#323232"/>
</svg>
